HIERARCHY
ROOT pelvis
{
  OFFSET 0 100 0
  CHANNELS 6 Xposition Yposition Zposition Zrotation Xrotation Yrotation
  JOINT pelvis_right_femur
  {
    OFFSET -10.78128 -3.44521 -0.5502486
    CHANNELS 3 Zrotation Xrotation Yrotation
    JOINT right_femur_tibia
    {
      OFFSET -0.8047443 -44.0398 -0.1307829
      CHANNELS 3 Zrotation Xrotation Yrotation
      JOINT right_tibia_foot
      {
        OFFSET 3.006224 -47.83518 -5
        CHANNELS 3 Zrotation Xrotation Yrotation
        End Site
        {
          OFFSET 0 -5 15
        }
      }
    }
  }
  JOINT pelvis_left_femur
  {
    OFFSET 10.78128 -3.44521 -0.5502486
    CHANNELS 3 Zrotation Xrotation Yrotation
    JOINT left_femur_tibia
    {
      OFFSET 0.8047443 -44.0398 -0.1307829
      CHANNELS 3 Zrotation Xrotation Yrotation
      JOINT left_tibia_foot
      {
        OFFSET -4.370144 -48.10324 -4.275266
        CHANNELS 3 Zrotation Xrotation Yrotation
        End Site
        {
          OFFSET 0 -5 15
        }
      }
    }
  }
  JOINT pelvis_spine1
  {
    OFFSET 0 6.468898 -3.129235
    CHANNELS 3 Zrotation Xrotation Yrotation
    JOINT spine1
    {
      OFFSET 0 23.15396 4.99043
      CHANNELS 3 Zrotation Xrotation Yrotation
      JOINT spine2
      {
        OFFSET 0 20.79997 -5.064912
        CHANNELS 3 Zrotation Xrotation Yrotation
        JOINT neck
        {
          OFFSET 0 14.38658 9.616178
          CHANNELS 3 Zrotation Xrotation Yrotation
          End Site
          {
            OFFSET 0 20 0
          }
        }
      }
      JOINT right_manubrium
      {
        OFFSET -5.722621 16.35077 3.967754
        CHANNELS 3 Zrotation Xrotation Yrotation
        JOINT right_clavicle
        {
          OFFSET -13.16364 1.694482 -4.693211
          CHANNELS 3 Zrotation Xrotation Yrotation
          JOINT right_humerus
          {
            OFFSET -28.5034 -0.3100689 -2.792744
            CHANNELS 3 Zrotation Xrotation Yrotation
            JOINT right_radius
            {
              OFFSET -25.15693 0.02248979 -1.271978
              CHANNELS 3 Zrotation Xrotation Yrotation
              End Site
              {
                OFFSET -15 0 0
              }
            }
          }
        }
      }
      JOINT left_manubrium
      {
        OFFSET 5.722621 16.35077 3.967754
        CHANNELS 3 Zrotation Xrotation Yrotation
        JOINT left_clavicle
        {
          OFFSET 13.16364 1.694482 -4.693211
          CHANNELS 3 Zrotation Xrotation Yrotation
          JOINT left_humerus
          {
            OFFSET 29.39168 -1.063119 -2.237045
            CHANNELS 3 Zrotation Xrotation Yrotation
            JOINT left_radius
            {
              OFFSET 24.59957 -0.9528479 0.9047498
              CHANNELS 3 Zrotation Xrotation Yrotation
              End Site
              {
                OFFSET 15 -0 -0
              }
            }
          }
        }
      }
    }
  }
}
MOTION
Frames: 21
Frame Time: 0.0416666666667
0 103.5113 0 0.1112684 -2.431795 0.04980228 -1.675672 -5.173154 7.173597 -0 29.40534 -0 -2.945172 -16.22979 -1.791955 -5.817132 7.591933 -13.90211 -0 11.2911 -0 13.54634 -18.36787 29.14183 -0.3714938 -5.507399 6.204537 1.223694 11.00477 -6.976893 0.7022619 23.55291 6.393747 2.159518 -20.81229 8.028257 9.987964 -18.31595 14.97752 82.47785 36.6805 -19.80295 -0 0 18.16353 -8.559963 4.805958 3.05897 6.543336 -22.38027 1.423376 -98.20479 33.87518 25.53383 0 0 -16.0793 -3.553161 12.22925 18.46862
0.5620143 103.4165 0.9973366 0.1071537 -2.353972 0.3134586 -1.163812 -8.739469 7.760512 -0 36.18381 -0 -3.499276 -14.9766 -3.184957 -5.990442 8.59741 -13.95922 -0 10.33893 -0 13.38865 -18.784 28.96032 -0.6644121 -5.291627 5.888625 1.51595 11.22765 -7.311094 0.6989467 23.56226 6.541079 2.287602 -20.87208 8.110832 9.932668 -18.28463 14.83032 82.29751 36.42794 -19.53729 -0 0 18.20729 -8.874983 4.733411 3.470526 6.483624 -22.37222 1.237907 -97.83705 33.82369 25.57577 0 0 -16.03408 -3.585315 12.41468 18.68399
0.9814245 103.2353 2.173546 0.1020343 -2.244653 0.6848121 -0.3625262 -12.63365 8.031211 -0 43.0326 -0 -4.176702 -13.72172 -4.466984 -6.184092 9.681274 -14.12083 -0 9.284006 -0 13.09655 -19.20478 28.76649 -1.144382 -5.083197 5.562752 1.938486 11.40178 -7.7121 0.7267919 23.53623 6.658242 2.42638 -20.90877 8.178678 9.963454 -18.25887 14.65668 82.2578 36.17946 -19.40195 -0 0 18.13598 -9.122228 4.665807 3.856957 6.48522 -22.38162 0.9682414 -97.43305 33.77673 25.58143 0 0 -16.06007 -3.673535 12.55735 18.85178
1.414977 103.2406 3.551436 0.09603885 -2.136903 1.050774 0.5968649 -16.91457 7.98629 -0 49.33271 -0 -5.081752 -12.90807 -5.499985 -5.874241 11.01519 -14.4035 -0 7.881014 -0 12.5629 -19.66903 28.28371 -1.70927 -4.713586 5.168932 2.474663 11.56474 -8.211635 0.8110895 23.46092 6.752659 2.598889 -20.9934 8.258839 10.0862 -18.26072 14.51665 82.22589 35.94481 -19.38138 -0 0 17.84948 -9.311301 4.592641 4.199359 6.412755 -22.43103 0.5620986 -97.01271 33.73515 25.56548 0 0 -16.11224 -3.814704 12.66147 18.98283
1.654322 103.2591 5.137493 0.09012544 -1.975997 1.59755 1.615284 -21.00605 7.661627 -0 54.95789 -0 -6.071362 -11.91494 -6.118061 -5.733903 12.37925 -14.44595 -0 6.764844 -0 11.87686 -19.96965 27.96091 -2.187769 -4.489834 4.942279 2.886201 11.69686 -8.503417 0.8525701 23.39942 6.838273 2.741168 -21.02628 8.286681 10.1782 -18.06579 14.24481 82.4679 35.67588 -19.65413 -0 0 17.40535 -9.439469 4.513691 4.531869 6.204145 -22.63344 0.3625238 -96.55233 33.6145 25.49318 0 0 -16.10705 -3.867443 12.75735 19.10576
1.97366 103.1213 7.03676 0.08163719 -1.99814 1.516332 2.295254 -24.74851 6.260583 -0 54.64687 -0 -6.373141 -11.52414 -6.287947 -5.981162 14.2038 -14.11022 -0 5.960834 -0 11.1875 -20.46549 27.72838 -2.638252 -3.792309 4.93285 3.414715 11.56365 -8.643816 1.01318 23.27852 6.960511 2.958023 -21.14662 8.465621 9.94349 -17.85731 13.88607 82.64158 35.37975 -19.9802 -0 0 16.93797 -9.583244 4.396906 4.912442 6.178063 -22.56991 0.1378167 -96.22875 33.4332 25.43467 0 0 -16.30443 -3.964359 12.81287 19.15501
2.218418 102.8882 8.95373 0.07212153 -2.045799 1.345212 2.668128 -27.76647 4.780015 -0 51.90023 -0 -6.496973 -10.91515 -5.953536 -6.084775 15.91114 -13.74194 -0 5.147725 -0 10.44783 -21.12245 27.42917 -3.001364 -2.854104 4.98346 3.795677 11.33317 -8.672601 1.142611 23.05607 7.07491 3.133874 -21.28401 8.614915 9.569319 -17.7744 13.53547 82.70697 35.07008 -20.14352 -0 0 16.59171 -9.772232 4.258044 5.38661 6.153423 -22.5874 -0.005597256 -95.90116 33.16564 25.23716 0 0 -16.61268 -3.988533 12.86277 19.17083
2.470855 102.4518 11.15014 0.06311354 -2.070593 1.249928 2.866917 -30.30527 3.53499 -0 46.40536 -0 -6.482156 -10.11555 -5.402448 -6.166085 17.68785 -13.35493 -0 4.526792 -0 9.681662 -21.98419 26.99417 -3.174654 -1.770957 4.962784 4.032683 11.1407 -8.687392 1.315765 22.83058 7.132798 3.33122 -21.43169 8.72401 8.965655 -17.89085 13.15884 82.66878 34.81146 -20.04011 -0 0 16.4386 -10.02686 4.142484 5.975015 6.149938 -22.59695 -0.06563637 -95.60695 32.8136 24.98728 0 0 -16.96177 -3.96518 12.89949 19.17548
2.692848 101.7654 13.70657 0.05416079 -2.102073 1.129764 2.993789 -32.01609 2.584145 -0 39.02707 -0 -6.427058 -9.154505 -4.748063 -6.092927 19.40347 -13.06638 -0 4.178848 -0 8.825422 -22.94472 26.34927 -3.253117 -0.7853715 4.922905 4.056855 10.92505 -8.62813 1.381631 22.47693 7.24536 3.5062 -21.45466 8.751465 8.312208 -18.07253 12.86013 82.6745 34.62233 -19.78356 -0 0 16.33574 -10.32387 4.073272 6.616025 6.111071 -22.53285 -0.1218147 -95.40332 32.3611 24.735 0 0 -17.32201 -3.896586 12.93331 19.17537
2.966276 100.9409 16.6841 0.04721914 -2.084726 1.176397 2.94975 -33.15462 1.957627 -0 31.06751 -0 -6.458696 -8.082614 -3.959325 -6.276743 21.13837 -12.58909 -0 4.313455 -0 7.81396 -23.85092 25.50623 -3.334091 0.136867 4.728803 4.133079 10.72476 -8.696572 1.469473 22.11203 7.353869 3.732075 -21.45258 8.748996 7.653038 -18.29063 12.6489 82.64462 34.50794 -19.46666 -0 0 16.14111 -10.65423 4.0567 7.277945 6.119983 -22.339 -0.3905937 -95.26792 31.88152 24.56872 0 0 -17.7199 -3.88431 12.93507 19.15615
3.098062 100.0462 20.11991 0.0456186 -1.957263 1.603345 3.144216 -33.85073 1.69451 -0 24.07296 -0 -6.604335 -6.90467 -3.064958 -6.123292 23.14463 -11.93433 -0 4.833317 -0 6.491645 -24.5082 24.24297 -3.348398 0.8142297 4.35328 4.208103 10.47929 -8.85437 1.531097 21.61816 7.523383 3.98702 -21.5871 8.765445 7.22625 -18.44065 12.43631 82.75079 34.45277 -19.32439 -0 0 15.66565 -10.97056 4.100532 7.907197 5.877998 -22.12168 -0.7209579 -95.10721 31.33486 24.53129 0 0 -17.86605 -3.837745 12.91719 19.17207
3.111054 99.21345 24.01248 0.04601889 -1.767727 2.24785 3.600078 -33.96809 1.813445 -0 19.72307 -0 -7.009532 -6.045064 -2.260118 -5.859515 24.76496 -11.21802 -0 6.36119 -0 4.786812 -24.56884 22.68464 -3.369906 1.360462 3.878835 4.222784 10.30061 -9.051645 1.59457 21.18399 7.652655 4.255095 -21.72986 8.719813 6.921886 -18.43422 12.24322 82.9979 34.41133 -19.37238 -0 0 15.05534 -11.28446 4.206121 8.53788 5.533981 -21.90283 -1.027804 -94.80205 30.71244 24.57054 0 0 -17.84776 -3.712027 12.89252 19.20046
3.129453 98.61578 28.48732 0.04659489 -1.520362 3.095493 4.066017 -32.89302 2.153979 -0 19.13856 -0 -7.716389 -5.231379 -2.015095 -5.489467 25.77264 -10.51827 -0 9.305775 -0 2.589896 -23.56922 20.86883 -3.239415 1.496668 3.28237 4.141193 10.15783 -9.322923 1.619561 20.87005 7.724897 4.483657 -21.83293 8.584042 6.704338 -18.33336 11.87787 83.28982 34.32003 -19.54698 -0 0 14.56854 -11.72157 4.380773 9.224336 4.987752 -21.57909 -1.138308 -94.46333 29.97695 24.81189 0 0 -17.70168 -3.491526 12.87942 19.18545
3.152653 98.36416 33.60021 0.04510863 -1.288022 3.894937 4.398711 -31.57578 2.616288 -0 20.806 -0 -8.598721 -4.560903 -2.143805 -4.951659 25.89288 -9.977746 -0 14.05887 -0 -0.1185496 -20.95426 18.8783 -2.832355 1.334181 2.872421 3.889674 10.09706 -9.378428 1.527253 20.50224 7.786348 4.612271 -21.98189 8.360059 6.476984 -17.88899 11.59008 83.6962 34.19674 -19.90226 -0 0 14.11591 -12.29383 4.63265 9.968573 4.302293 -21.16824 -1.134839 -94.1611 29.14686 25.15562 0 0 -17.49666 -3.208717 12.8417 19.12988
3.262869 98.61708 39.34678 0.04228063 -1.209168 4.167329 4.653468 -29.87396 3.087183 -0 23.25611 -0 -9.467159 -4.839555 -2.494954 -4.760111 24.92371 -9.438763 -0 21.14037 -0 -3.154484 -16.35729 16.97432 -2.304719 1.029959 2.642077 3.712417 9.994508 -9.34253 1.213282 20.39542 7.850154 4.580949 -21.94412 7.987254 6.368793 -17.63414 11.44394 83.88088 34.1248 -19.9572 -0 0 13.7815 -13.02162 4.93888 10.82025 3.754391 -20.71952 -1.138848 -93.84408 28.25401 25.37277 0 0 -17.49203 -2.873107 12.69912 18.93459
3.328016 99.12778 45.1037 0.03930072 -1.29317 3.879747 5.046818 -27.17085 3.434029 -0 24.78249 -0 -10.24812 -6.186352 -2.678646 -5.073011 22.10413 -8.735952 -0 30.41749 -0 -5.932894 -10.45024 15.53273 -1.802196 0.6846415 2.885089 3.529217 10.12952 -9.122421 0.8037809 20.34867 7.931568 4.481931 -21.83698 7.568309 6.177667 -17.05999 11.33997 84.13314 34.06254 -20.2509 -0 0 13.08516 -13.69287 5.295425 11.47333 3.328988 -20.37873 -1.147912 -93.44516 27.32087 25.29313 0 0 -17.81869 -2.464171 12.48001 18.55514
3.412538 99.99188 50.65978 0.03437584 -1.492426 3.196733 5.293566 -23.54678 3.518239 -0 25.00385 -0 -10.77582 -8.0408 -2.639234 -5.017531 17.40072 -8.244246 -0 40.58503 -0 -8.070158 -4.527736 14.4093 -1.278696 0.4847966 3.749586 3.330767 10.16513 -8.52585 0.3996527 20.54534 7.933856 4.383715 -21.60733 7.054277 6.118548 -16.81377 11.54359 83.97918 34.10097 -20.05231 -0 0 12.51834 -14.28706 5.730362 11.91983 2.931155 -20.49362 -1.084576 -92.76433 26.46955 24.76378 0 0 -18.43018 -1.923599 12.29935 18.08146
3.660968 100.9413 56.05257 0.02676104 -1.727185 2.394462 5.319986 -19.16752 3.451492 -0 23.82131 -0 -10.96498 -9.836289 -2.461735 -4.488098 10.26777 -7.680827 -0 49.8115 -0 -9.583769 0.05153506 13.79879 -0.7349001 0.169066 4.882467 3.158761 10.24202 -7.783672 0.0557618 20.93396 7.832919 4.317303 -21.26552 6.454896 5.919142 -16.71115 11.81758 83.42335 34.18179 -19.55328 -0 0 12.08749 -14.88725 6.209849 12.26204 2.726018 -20.82511 -0.9034851 -91.93862 25.66576 23.99572 0 0 -19.28705 -1.274452 12.14255 17.53272
3.705375 102.1371 60.98912 0.02491406 -1.797664 2.158961 5.218593 -14.52442 3.259133 -0 21.31379 -0 -10.76138 -11.18883 -2.166358 -3.684621 2.37787 -6.93013 -0 56.05236 -0 -9.228398 1.196703 13.7672 -0.5145975 -0.03713875 6.108472 3.038637 10.18957 -7.049508 -0.1262295 21.35736 7.610491 4.337459 -20.87563 5.826484 5.900185 -16.96964 12.17082 82.63042 34.27837 -18.52279 -0 0 11.98832 -15.53997 6.716917 12.58667 2.682313 -21.26565 -0.709624 -90.96565 24.88337 23.16035 0 0 -20.19955 -0.6271218 11.90495 16.89877
3.804382 103.3998 65.6563 0.02532461 -1.842625 2.01055 5.022884 -9.671461 2.891431 -0 18.00983 -0 -10.22021 -12.11047 -1.754134 -2.349516 -5.980967 -6.051533 -0 58.69531 -0 -8.064439 -0.3417811 14.04873 -0.3746864 -0.019968 7.207206 2.817373 10.23297 -6.270644 -0.2175658 21.58026 7.363755 4.38305 -20.52147 5.250577 5.651056 -17.06251 12.48555 81.93919 34.38732 -17.55116 -0 0 11.70062 -16.08349 7.240456 12.72593 2.847008 -21.60521 -0.4344491 -90.12125 24.11014 22.44409 0 0 -21.19106 -0.03995924 11.61551 16.21003
4.002093 104.2416 70.3732 0.0264171 -1.874443 1.90457 4.786998 -4.867058 2.494349 -0 14.64494 -0 -9.508127 -12.93095 -1.301307 -0.9934776 -13.17733 -5.127659 -0 57.05454 -0 -6.726446 -2.483376 14.60268 -0.2796365 0.05208321 7.953199 2.362301 9.963405 -5.606541 -0.3380261 21.68966 7.203019 4.386456 -20.07173 4.776172 5.225163 -17.6683 12.88973 80.92899 34.47483 -15.84279 -0 0 12.03437 -16.744 7.681921 13.05334 3.097293 -21.78123 -0.2847945 -89.43661 23.41815 21.91048 0 0 -21.86856 0.4327643 11.27438 15.57976
